<svg xmlns="http://www.w3.org/2000/svg" viewBox="0 0 189.48 239.11"><title>afraidAsset 3</title><g id="Layer_2" data-name="Layer 2"><g id="Layer_1-2" data-name="Layer 1"><path d="M75.69,115.15c.74-14.44,1.44-28.88,2.28-43.31.1-1.74.45-4,1.57-5s3.39-1,5.16-1.44a31.64,31.64,0,0,1,.15,4.76c-.55,4.57-1.73,9.11-1.84,13.69-.5,21.28-.79,42.57-1,63.86-.07,6.32,10.51,17.32,16.89,18,3.91.4,6-1.88,7.83-5,.89-1.48,2.87-2.32,4.36-3.45.33,2,1.46,4.34.84,6-2.69,7.31-10.83,11.11-17.49,7.27-12.06-6.94-20.3-12.22-18.63-27.41.51-4.61.14-9.31.15-14s0-9.31,0-14Z"/><path d="M177.19,54.23a76.55,76.55,0,0,1-2.54,7.91C173,66,169.91,66.52,166,65.87s-5.95-3.19-5.76-6.34a41.16,41.16,0,0,1,3.1-14.19c1-2.18,5.15-4.47,7.43-4.09s4.1,4,5.56,6.48C177.14,49.17,176.84,51.28,177.19,54.23Z"/><path d="M39.21,60.32a74.57,74.57,0,0,1-2.65,8c-1.7,3.84-4.91,4.22-8.77,3.56-3.66-.63-5.71-3.07-5.52-6a44.29,44.29,0,0,1,3.15-14.65c.93-2.14,5.09-4.2,7.53-3.93,2,.21,3.94,3.75,5.25,6.17C39.08,55.05,38.82,57.29,39.21,60.32Z"/><path d="M7.08,41.39C17,25.88,31.8,14.52,50,10.67c4.72-1,2.72-8.23-2-7.23C27.93,7.69,11.52,20.52.61,37.6-2,41.68,4.49,45.45,7.08,41.39Z"/><path d="M135.89,7.52c17.49,1.59,33.69,8.3,48.12,18.15,4,2.73,7.75-3.76,3.78-6.47C172.23,8.56,154.71,1.73,135.89,0c-4.81-.44-4.78,7.06,0,7.5Z"/><path d="M50.41,230.93a126.62,126.62,0,0,1,43.38-17.8c7.36-1.5,15.49-2.91,23-2.37,5.71.41,11.38,3.24,15.92,6.6,3,2.23,9.51,7.2,4.73,10.4-3.2,2.13-7.62,2.84-11.33,3.52a126.56,126.56,0,0,1-20.48,1.83c-3.86.07-3.87,6.07,0,6a147.81,147.81,0,0,0,19-1.55c6.21-.92,16.12-2.21,19.7-8.26,5.25-8.87-8.78-17.94-15.14-21C117.9,202.82,105,204.82,93,207.18a131.14,131.14,0,0,0-45.64,18.57c-3.24,2.09-.23,7.29,3,5.18Z"/></g></g></svg>