<svg xmlns="http://www.w3.org/2000/svg" viewBox="0 0 209.71 272.62"><title>angryAsset 5</title><g id="Layer_2" data-name="Layer 2"><g id="Layer_1-2" data-name="Layer 1"><path d="M90.22,125.45C91,111,91.66,96.57,92.5,82.13c.1-1.73.45-3.95,1.57-5s3.4-1,5.16-1.45a31.82,31.82,0,0,1,.15,4.77c-.54,4.57-1.73,9.11-1.84,13.69-.5,21.28-.79,42.57-1,63.86-.06,6.31,10.51,17.32,16.89,18,3.92.4,6-1.89,7.83-5,.9-1.49,2.88-2.32,4.36-3.45.33,2,1.46,4.34.84,6-2.69,7.31-10.83,11.11-17.49,7.27-12.06-7-20.3-12.22-18.62-27.41.51-4.61.13-9.31.14-14s0-9.31,0-14Z"/><path d="M191.72,64.53a73.38,73.38,0,0,1-2.54,7.9c-1.64,3.82-4.74,4.38-8.68,3.74s-5.94-3.19-5.75-6.34a40.7,40.7,0,0,1,3.1-14.19c1-2.18,5.14-4.47,7.42-4.09s4.1,4,5.56,6.48C191.67,59.47,191.37,61.58,191.72,64.53Z"/><path d="M53.74,70.62a74.57,74.57,0,0,1-2.65,8c-1.69,3.84-4.91,4.22-8.77,3.56-3.65-.63-5.71-3.07-5.52-6A44.4,44.4,0,0,1,40,61.48c.94-2.13,5.09-4.19,7.53-3.92,2,.21,3.94,3.75,5.26,6.16C53.62,65.35,53.36,67.59,53.74,70.62Z"/><path d="M3.58,25.63A109.59,109.59,0,0,1,73.74,41.74c4.1,2.57,7.86-3.91,3.78-6.48A116.14,116.14,0,0,0,3.58,18.13c-4.75.5-4.8,8,0,7.5Z"/><path d="M143.39,45.69A200.08,200.08,0,0,1,207.16,7.48c4.49-1.65,2.55-8.9-2-7.23a210,210,0,0,0-67.08,40.13c-3.62,3.22,1.7,8.5,5.3,5.31Z"/><path d="M70,270.06a49.54,49.54,0,0,1,36.63-31.87c18.38-3.68,36.77,4.09,48.27,18.54,3,3.77,8.28-1.56,5.3-5.3A56.92,56.92,0,0,0,104.66,231c-19.6,3.93-35.18,18.53-41.87,37.11-1.64,4.55,5.61,6.51,7.23,2Z"/></g></g></svg>