<svg xmlns="http://www.w3.org/2000/svg" viewBox="0 0 197.53 202.17"><title>anxiousAsset 2</title><g id="Layer_2" data-name="Layer 2"><g id="Layer_1-2" data-name="Layer 1"><path d="M77.55,102.46C78.29,88,79,73.58,79.83,59.14c.1-1.73.45-4,1.57-5s3.4-1,5.16-1.45a31.82,31.82,0,0,1,.15,4.77C86.17,62,85,66.57,84.87,71.15c-.5,21.28-.78,42.57-1,63.86-.06,6.31,10.52,17.32,16.89,18,3.92.4,6-1.89,7.83-5,.9-1.49,2.88-2.32,4.36-3.45.33,2,1.46,4.34.85,6-2.69,7.31-10.84,11.11-17.5,7.27-12.06-7-20.3-12.22-18.62-27.41.51-4.61.13-9.31.14-14s0-9.31,0-14Z"/><path d="M156.09,19c14.29.56,26.53-3.5,38.3-9.14,1.55-.74,3.52-3.82,3.08-4.92-1.25-3.1-3.8-1.26-5.84-.26-17.2,8.37-35.2,11-53.75,6.12-6-1.6-11.43-5.67-17.26-8.27-1.73-.78-4.77-1.35-5.82-.43-2.51,2.21-.2,4.19,1.73,5.51a63.89,63.89,0,0,0,35,11.38C153.4,19,155.23,19,156.09,19Z"/><path d="M29.53,19.05C40.58,19.18,49,13.24,57,6.68c1.17-.95.93-3.61,1.34-5.48-1.83.41-4.12.26-5.42,1.33C38.28,14.46,25.5,16.82,10.53,7.47c-1.93-1.21-3-3.68-4.68-5.39C4.94,1.14,3.51-.17,2.59,0,1.51.25-.15,2.09,0,3A12.07,12.07,0,0,0,2.7,9C9.13,15.57,18.72,19,29.53,19.05Z"/><path d="M179.05,41.54a73.38,73.38,0,0,1-2.54,7.9c-1.64,3.82-4.74,4.38-8.68,3.74s-5.94-3.19-5.75-6.34a40.93,40.93,0,0,1,3.1-14.19c1-2.18,5.14-4.47,7.42-4.09s4.1,4,5.56,6.48C179,36.48,178.7,38.58,179.05,41.54Z"/><path d="M41.07,47.63a74.57,74.57,0,0,1-2.65,8c-1.69,3.84-4.91,4.22-8.77,3.56-3.65-.63-5.71-3.07-5.51-6a44.39,44.39,0,0,1,3.14-14.66c.94-2.13,5.09-4.19,7.53-3.92,2,.21,3.94,3.75,5.26,6.16C41,42.36,40.69,44.6,41.07,47.63Z"/><path d="M97.83,202.17a51.33,51.33,0,0,1-14.08-2.09c-1.53-.43-6-2.51-6.69-4-.46-1,.25-3,1.09-3.92.56-.62,8.69.61,9.6.92,12,4,40.44,0,41,0,1.6,0,2.06,4.14,1,4.93C123.89,202.28,105.26,202.17,97.83,202.17Z"/></g></g></svg>