<svg xmlns="http://www.w3.org/2000/svg" viewBox="0 0 197.53 212.11"><title>happyAsset 1</title><g id="Layer_2" data-name="Layer 2"><g id="Layer_1-2" data-name="Layer 1"><path d="M77.55,92.46C78.29,78,79,63.58,79.83,49.14c.1-1.73.45-4,1.57-5s3.4-1,5.16-1.45a31.82,31.82,0,0,1,.15,4.77C86.17,52,85,56.57,84.87,61.15c-.5,21.28-.78,42.57-1,63.86-.06,6.31,10.52,17.32,16.89,18,3.92.4,6-1.89,7.83-5,.9-1.49,2.88-2.32,4.36-3.45.33,2,1.46,4.34.85,6-2.69,7.31-10.84,11.11-17.5,7.27-12.06-7-20.3-12.22-18.62-27.41.51-4.61.13-9.31.14-14s0-9.31,0-14Z"/><path d="M156.09.1c14.29-.57,26.53,3.5,38.3,9.13,1.55.75,3.52,3.82,3.08,4.93-1.25,3.1-3.8,1.26-5.84.26-17.2-8.37-35.2-11-53.75-6.12-6,1.6-11.43,5.66-17.26,8.27-1.73.78-4.77,1.35-5.82.42-2.51-2.21-.2-4.18,1.73-5.51a64,64,0,0,1,35-11.37C153.4.06,155.23.1,156.09.1Z"/><path d="M29.53,0C40.58-.12,49,5.82,57,12.38c1.17.95.93,3.61,1.34,5.48-1.83-.41-4.12-.27-5.42-1.33C38.28,4.6,25.5,2.24,10.53,11.59c-1.93,1.2-3,3.67-4.68,5.39-.91.93-2.34,2.25-3.26,2.06C1.51,18.81-.15,17,0,16.11a12.06,12.06,0,0,1,2.69-6C9.13,3.49,18.72.07,29.53,0Z"/><path d="M179.05,31.54a73.38,73.38,0,0,1-2.54,7.9c-1.64,3.82-4.74,4.38-8.68,3.74s-5.94-3.19-5.75-6.34a40.93,40.93,0,0,1,3.1-14.19c1-2.18,5.14-4.47,7.42-4.09s4.1,4,5.56,6.48C179,26.48,178.7,28.58,179.05,31.54Z"/><path d="M41.07,37.63a74.57,74.57,0,0,1-2.65,8c-1.69,3.84-4.91,4.22-8.77,3.56-3.65-.63-5.71-3.07-5.51-6a44.39,44.39,0,0,1,3.14-14.66c.94-2.13,5.09-4.19,7.53-3.92,2,.21,3.94,3.75,5.26,6.16C41,32.36,40.69,34.6,41.07,37.63Z"/><path d="M132,180.73c-6.28,14.76-17.31,23.84-33.44,25.2-6.45.55-12.93-.08-18.59-3.45-7.2-4.29-11.2-11.84-13.62-19.61-1.15-3.67-6.94-2.1-5.79,1.6C66,201.69,78.81,213.25,97.44,212s32.44-11,39.78-28.26c1.49-3.51-3.68-6.57-5.18-3Z"/></g></g></svg>