<svg xmlns="http://www.w3.org/2000/svg" viewBox="0 0 199.61 241.71"><title>joyfulAsset 4</title><g id="Layer_2" data-name="Layer 2"><g id="Layer_1-2" data-name="Layer 1"><path d="M34.79,0c13-.18,23,8.21,32.39,17.46,1.37,1.34-3.28,7.36-4.81,5.86-17.26-16.83-32.32-20.16-50-7-2.27,1.7-3.56,5.18-5.51,7.6-1.07,1.32-2.77,3.18-3.85,2.91-1.27-.32-3.22-2.93-3-4.13.47-3,1.45-6.36,3.17-8.48C10.75,4.92,22.06.1,34.79,0Z"/><path d="M166.79,0C181.07-.11,197,7.82,199.18,17.46c.39,1.72.9,5.88-.43,6.46s-3.68-2.52-5-4C187,12.25,175,8.13,165.46,8.25c-7.36.09-16.73,2.76-20.71,7.67-1.64,2-3.43,3.91-5,6-2.49,3.31-3.36,5-4.7,4.94s-3.32-2.31-3-4.13c.47-3,1.45-6.36,3.17-8.48C142.75,4.92,154.06.1,166.79,0Z"/><path d="M177.05,52.37a72.76,72.76,0,0,1-2.54,7.91c-1.64,3.82-4.74,4.38-8.68,3.74s-5.94-3.19-5.75-6.35a40.87,40.87,0,0,1,3.1-14.18c1-2.19,5.14-4.48,7.42-4.09s4.1,4,5.56,6.48C177,47.32,176.7,49.42,177.05,52.37Z"/><path d="M39.07,58.47a74.57,74.57,0,0,1-2.65,8c-1.69,3.84-4.91,4.22-8.77,3.56-3.65-.63-5.71-3.07-5.51-6a44.39,44.39,0,0,1,3.14-14.66c.94-2.13,5.09-4.19,7.53-3.92,2,.21,3.94,3.74,5.26,6.16C39,53.2,38.69,55.44,39.07,58.47Z"/><path d="M73.55,108.3C74.29,93.86,75,79.42,75.83,65c.1-1.74.45-4,1.57-5s3.4-1,5.16-1.45a31.82,31.82,0,0,1,.15,4.77C82.17,67.87,81,72.41,80.87,77c-.5,21.29-.78,42.58-1,63.87-.06,6.31,10.52,17.32,16.89,18,3.92.4,6-1.89,7.83-5,.9-1.49,2.88-2.32,4.36-3.45.33,2,1.46,4.34.85,6-2.69,7.32-10.84,11.12-17.5,7.28-12.06-7-20.3-12.23-18.62-27.41.51-4.61.13-9.31.14-14s0-9.31,0-14Z"/><path d="M135.71,207.45c-9.31,16.5-26.14,28.73-45.64,28.24-19-.48-34.31-13.24-41.83-30.06l-2.59,4.51a348.41,348.41,0,0,1,91.86,1.71c3.77.58,5.4-5.2,1.59-5.78a353.62,353.62,0,0,0-93.45-1.93,3.06,3.06,0,0,0-2.59,4.52c8.38,18.76,26.06,32.5,47,33,21.56.54,40.51-12.93,50.83-31.21C142.8,207.11,137.61,204.08,135.71,207.45Z"/></g></g></svg>