<svg xmlns="http://www.w3.org/2000/svg" viewBox="0 0 197.53 202.17"><title>lovingAsset 9</title><g id="Layer_2" data-name="Layer 2"><g id="Layer_1-2" data-name="Layer 1"><path d="M77.55,100.46C78.29,86,79,71.58,79.83,57.14c.1-1.73.45-4,1.57-5s3.4-1,5.16-1.45a31.82,31.82,0,0,1,.15,4.77C86.17,60,85,64.57,84.87,69.15c-.5,21.28-.78,42.57-1,63.86-.06,6.31,10.52,17.32,16.89,18,3.92.4,6-1.89,7.83-5,.9-1.49,2.88-2.32,4.36-3.45.33,2,1.46,4.34.85,6-2.69,7.31-10.84,11.11-17.5,7.27-12.06-7-20.3-12.22-18.62-27.41.51-4.61.13-9.31.14-14s0-9.31,0-14Z"/><path d="M156.09.1c14.29-.57,26.53,3.5,38.3,9.13,1.55.75,3.52,3.82,3.08,4.93-1.25,3.1-3.8,1.26-5.84.26-17.2-8.37-35.2-11-53.75-6.12-6,1.6-11.43,5.66-17.26,8.27-1.73.78-4.77,1.35-5.82.42-2.51-2.21-.2-4.18,1.73-5.51a64,64,0,0,1,35-11.37C153.4.06,155.23.1,156.09.1Z"/><path d="M29.53,0C40.58-.12,49,5.82,57,12.38c1.17.95.93,3.61,1.34,5.48-1.83-.41-4.12-.27-5.42-1.33C38.28,4.6,25.5,2.24,10.53,11.59c-1.93,1.2-3,3.67-4.68,5.39-.91.93-2.34,2.25-3.26,2.06C1.51,18.81-.15,17,0,16.11a12.06,12.06,0,0,1,2.69-6C9.13,3.49,18.72.07,29.53,0Z"/><path d="M97.83,202.17c-5.32-1.14-10.7-2.09-15.94-3.54a7.09,7.09,0,0,1-3.83-3.55c-.46-1,.25-3,1.09-3.92a3.58,3.58,0,0,1,3.46-.16c10,7,20.1,5.63,30.37.95.6-.27,1.16-1,1.72-.95a46,46,0,0,1,4.79.56c-.56,1.52-.68,3.66-1.77,4.45A32.6,32.6,0,0,1,97.83,202.17Z"/><path d="M33.63,65.12a16.36,16.36,0,0,0-10-7.93,14.92,14.92,0,0,0-10,1.06c-1.52.78-3.94,2-4.88,4.62-1.18,3.29.79,6.56,1.66,8a17.32,17.32,0,0,0,6.1,5.83A100.08,100.08,0,0,1,31,88.1"/><path d="M33.63,65.65C36.48,60.48,41.37,57.43,46,58c.27,0,6.08.67,7.39,4.9a9.51,9.51,0,0,1-1.65,8,28.15,28.15,0,0,1-6.1,5.83c-3.39,2.64-8.59,5.82-14.61,11.39"/><path d="M150.63,65.12a16.36,16.36,0,0,0-10-7.93,14.92,14.92,0,0,0-10,1.06c-1.52.78-3.94,2-4.88,4.62-1.18,3.29.79,6.56,1.66,8a17.32,17.32,0,0,0,6.1,5.83A100.08,100.08,0,0,1,148,88.1"/><path d="M150.63,65.65c2.85-5.17,7.74-8.22,12.41-7.68.27,0,6.08.67,7.39,4.9a9.51,9.51,0,0,1-1.65,8,28.15,28.15,0,0,1-6.1,5.83c-3.39,2.64-8.59,5.82-14.61,11.39"/></g></g></svg>