<svg xmlns="http://www.w3.org/2000/svg" viewBox="0 0 197.53 256.59"><title>sadAsset 7</title><g id="Layer_2" data-name="Layer 2"><g id="Layer_1-2" data-name="Layer 1"><path d="M156.09,19c14.29.56,26.53-3.5,38.3-9.14,1.55-.74,3.52-3.82,3.08-4.92-1.25-3.1-3.8-1.26-5.84-.26-17.2,8.37-35.2,11-53.75,6.12-6-1.6-11.43-5.67-17.26-8.27-1.73-.78-4.77-1.35-5.82-.43-2.51,2.21-.2,4.19,1.73,5.51a63.89,63.89,0,0,0,35,11.38C153.4,19,155.23,19,156.09,19Z"/><path d="M29.53,19.05C40.58,19.18,49,13.24,57,6.68c1.17-.95.93-3.61,1.34-5.48-1.83.41-4.12.26-5.42,1.33C38.28,14.46,25.5,16.82,10.53,7.47c-1.93-1.21-3-3.68-4.68-5.39C4.94,1.14,3.51-.17,2.59,0,1.51.25-.15,2.09,0,3A12.07,12.07,0,0,0,2.7,9C9.13,15.57,18.72,19,29.53,19.05Z"/><path d="M74.55,111.46C75.29,97,76,82.58,76.83,68.14c.1-1.73.45-4,1.57-5s3.4-1,5.16-1.45a31.82,31.82,0,0,1,.15,4.77C83.17,71,82,75.57,81.87,80.15c-.5,21.28-.78,42.57-1,63.86-.06,6.31,10.52,17.32,16.89,18,3.92.4,6-1.89,7.83-5,.9-1.49,2.88-2.32,4.36-3.45.33,2,1.46,4.34.85,6-2.69,7.31-10.84,11.11-17.5,7.27-12.06-7-20.3-12.22-18.62-27.41.51-4.61.13-9.31.14-14s0-9.31,0-14Z"/><path d="M176.05,50.54a73.38,73.38,0,0,1-2.54,7.9c-1.64,3.82-4.74,4.38-8.68,3.74s-5.94-3.19-5.75-6.34a40.93,40.93,0,0,1,3.1-14.19c1-2.18,5.14-4.47,7.42-4.09s4.1,4,5.56,6.48C176,45.48,175.7,47.58,176.05,50.54Z"/><path d="M38.07,56.63a74.57,74.57,0,0,1-2.65,8c-1.69,3.84-4.91,4.22-8.77,3.56-3.65-.63-5.71-3.07-5.51-6a44.39,44.39,0,0,1,3.14-14.66c.94-2.13,5.09-4.19,7.53-3.92,2,.21,3.94,3.75,5.26,6.16C38,51.36,37.69,53.6,38.07,56.63Z"/><path d="M47.84,254.66c8.25-17.37,23.56-33.89,43.9-35.19,19.88-1.28,35.35,13.37,42.35,30.85,1.78,4.43,9,2.5,7.24-2-8.06-20.1-25.35-37.08-48.28-36.42-23.52.67-42.09,18.76-51.69,39-2.06,4.34,4.4,8.15,6.48,3.79Z"/><path d="M9.52,110.42,4.81,123.24c-.54,1.48-.78,3.65.71,4.15s2.52-1.15,3-2.52A28.76,28.76,0,0,0,10,112.46"/><path d="M34.07,91.87l-2.79,16.52a9.24,9.24,0,0,0-.16,3.35,3.15,3.15,0,0,0,2,2.49,3.19,3.19,0,0,0,3.49-2,9.42,9.42,0,0,0,.36-4.36L35.9,93.4"/><path d="M155.52,134.42l-4.71,12.82c-.54,1.48-.78,3.65.71,4.15s2.52-1.15,3-2.52a28.76,28.76,0,0,0,1.5-12.41"/><path d="M163.07,88.87l-2.79,16.52a9.24,9.24,0,0,0-.16,3.35,3.15,3.15,0,0,0,2,2.49,3.19,3.19,0,0,0,3.49-2,9.42,9.42,0,0,0,.36-4.36L164.9,90.4"/><path d="M175.63,117.87,174,127.74a5.62,5.62,0,0,0-.09,2,1.87,1.87,0,0,0,1.22,1.48,1.9,1.9,0,0,0,2.08-1.22,5.7,5.7,0,0,0,.22-2.6l-.66-8.62"/></g></g></svg>