<svg xmlns="http://www.w3.org/2000/svg" viewBox="0 0 218.65 251.97"><title>surprisedAsset 8</title><g id="Layer_2" data-name="Layer 2"><g id="Layer_1-2" data-name="Layer 1"><path d="M80.59,122.36C81.34,107.92,82,93.48,82.87,79c.1-1.74.45-4,1.57-5s3.4-1,5.16-1.45a29.25,29.25,0,0,1,.15,4.76C89.21,81.93,88,86.47,87.91,91c-.5,21.29-.78,42.58-1,63.87-.06,6.31,10.52,17.32,16.89,18,3.92.4,6-1.89,7.83-5,.9-1.49,2.88-2.32,4.37-3.45.32,2,1.45,4.34.84,6-2.69,7.32-10.83,11.12-17.5,7.28-12.06-7-20.3-12.23-18.62-27.41.51-4.61.13-9.31.15-14s0-9.31,0-14Z"/><path d="M182.1,61.43a75.36,75.36,0,0,1-2.55,7.91c-1.64,3.82-4.74,4.38-8.68,3.74s-5.94-3.19-5.75-6.35a41.21,41.21,0,0,1,3.1-14.19c1-2.18,5.15-4.47,7.42-4.08s4.1,4,5.56,6.48C182,56.38,181.75,58.48,182.1,61.43Z"/><path d="M44.11,67.53a74.57,74.57,0,0,1-2.65,8c-1.69,3.84-4.91,4.22-8.77,3.56C29,78.43,27,76,27.18,73.05a44.15,44.15,0,0,1,3.15-14.66c.93-2.13,5.08-4.19,7.52-3.93,2,.22,3.94,3.75,5.26,6.17C44,62.25,43.73,64.5,44.11,67.53Z"/><path d="M139.71,12a200.38,200.38,0,0,1,74.23-2.13c4.72.75,6.76-6.48,2-7.24a210.45,210.45,0,0,0-78.22,2.14c-4.71,1-2.72,8.26,2,7.23Z"/><path d="M80.93,4.81A210.44,210.44,0,0,0,2.71,2.67c-4.75.76-2.73,8,2,7.24A200.38,200.38,0,0,1,78.94,12c4.71,1,6.72-6.2,2-7.23Z"/><path d="M121.54,225.5c-3.8-17.33-31-20.64-42.92-10.3-8.29,7.15-9.49,20.68-3,29.38s18.05,8.76,27.38,5,19.85-12.15,18.64-23.29c-.42-3.8-6.42-3.84-6,0,1,9-8.45,15.53-16.05,18.2-4.33,1.51-9.31,2.39-13.72.69-6-2.32-8.9-9-8.38-15.11.85-10,9.72-14.75,18.86-14.72,7.6,0,17.59,3.52,19.39,11.74C116.58,230.87,122.37,229.27,121.54,225.5Z"/></g></g></svg>