<svg xmlns="http://www.w3.org/2000/svg" viewBox="0 0 218.65 247.73"><title>unhappyAsset 6</title><g id="Layer_2" data-name="Layer 2"><g id="Layer_1-2" data-name="Layer 1"><path d="M93.59,109.36C94.34,94.92,95,80.48,95.87,66c.1-1.74.45-4,1.57-5s3.4-1,5.16-1.45a29.25,29.25,0,0,1,.15,4.76c-.54,4.58-1.73,9.12-1.84,13.69-.5,21.29-.78,42.58-1,63.87-.06,6.31,10.52,17.32,16.89,18,3.92.4,6-1.89,7.83-5,.9-1.49,2.88-2.32,4.37-3.45.32,2,1.45,4.34.84,6-2.69,7.32-10.83,11.12-17.5,7.28-12.06-7-20.3-12.23-18.62-27.41.51-4.61.13-9.31.15-14s0-9.31,0-14Z"/><path d="M195.1,48.43a75.36,75.36,0,0,1-2.55,7.91c-1.64,3.82-4.74,4.38-8.68,3.74s-5.94-3.19-5.75-6.35a41.21,41.21,0,0,1,3.1-14.19c1-2.18,5.15-4.47,7.42-4.08s4.1,4,5.56,6.48C195,43.38,194.75,45.48,195.1,48.43Z"/><path d="M57.11,54.53a74.57,74.57,0,0,1-2.65,8c-1.69,3.84-4.91,4.22-8.77,3.56C42,65.43,40,63,40.18,60.05a44.15,44.15,0,0,1,3.15-14.66c.93-2.13,5.08-4.19,7.52-3.93,2,.22,3.94,3.75,5.26,6.17C57,49.25,56.73,51.5,57.11,54.53Z"/><path d="M139.71,12a200.38,200.38,0,0,1,74.23-2.13c4.72.75,6.76-6.48,2-7.24a210.45,210.45,0,0,0-78.22,2.14c-4.71,1-2.72,8.26,2,7.23Z"/><path d="M80.93,4.81A210.44,210.44,0,0,0,2.71,2.67c-4.75.76-2.73,8,2,7.24A200.38,200.38,0,0,1,78.94,12c4.71,1,6.72-6.2,2-7.23Z"/><path d="M145.41,243.14c-5.17-15.65-17.29-29.06-33.84-32.63-17.72-3.83-34.63,4.42-45,18.71-2.85,3.91,3.66,7.65,6.48,3.78,8.64-11.86,23.3-18.65,37.88-14.95,13.37,3.4,23,14.28,27.28,27.09,1.5,4.56,8.75,2.6,7.23-2Z"/></g></g></svg>