<svg width="34" height="40" viewBox="0 0 25 30" fill="none" xmlns="http://www.w3.org/2000/svg">
<path d="M22.9823 17.7683C22.9823 18.029 22.9749 18.2897 22.9563 18.5505C22.9488 18.6808 22.9376 18.8074 22.9227 18.9378C22.9153 18.9974 22.9116 19.057 22.9041 19.1166C22.9004 19.1501 22.8967 19.1836 22.8929 19.2171C22.8818 19.3177 22.8929 19.2134 22.9004 19.1724C22.7998 19.679 22.7253 20.1818 22.5838 20.6808C22.5168 20.9229 22.4423 21.1613 22.3566 21.3959C22.3157 21.5114 22.271 21.6306 22.2263 21.746C22.2039 21.7982 22.1853 21.854 22.163 21.9062C22.0996 22.0663 22.2114 21.7982 22.1406 21.9546C21.9395 22.4127 21.7123 22.8596 21.4553 23.2879C21.3287 23.4965 21.1983 23.7051 21.0568 23.9062C20.9935 23.9993 20.9264 24.0924 20.8594 24.1855C20.8259 24.2302 20.7924 24.2786 20.7588 24.3233C20.7439 24.3457 20.6732 24.4276 20.7439 24.3457C20.8184 24.2563 20.729 24.3643 20.7104 24.3866C20.4087 24.7702 20.081 25.1315 19.7309 25.4704C19.5559 25.6418 19.3771 25.8056 19.1909 25.9658C19.0977 26.044 19.0046 26.1222 18.9078 26.2004C18.8668 26.2302 18.8221 26.2898 18.7737 26.3084C18.7849 26.3047 18.9153 26.2004 18.8072 26.2824C18.7812 26.301 18.7551 26.3233 18.729 26.342C18.3305 26.6399 17.9134 26.9118 17.4776 27.1576C17.2616 27.2768 17.0456 27.3922 16.8221 27.4965C16.7104 27.5487 16.5987 27.6008 16.4869 27.653C16.4609 27.6641 16.2821 27.7349 16.3938 27.6939C16.4944 27.6567 16.4124 27.6865 16.3901 27.6939C16.3528 27.7088 16.3119 27.7237 16.2746 27.7386C15.8016 27.9248 15.3175 28.0813 14.8258 28.2042C14.58 28.2638 14.3342 28.3196 14.0847 28.3643C13.9692 28.3867 13.85 28.4053 13.7346 28.4239C13.701 28.4276 13.6675 28.4314 13.634 28.4388C13.634 28.4388 13.7904 28.4202 13.7048 28.4276C13.6266 28.4351 13.5521 28.4463 13.4739 28.4537C12.9562 28.5096 12.4347 28.5319 11.9133 28.517C11.6526 28.5096 11.3956 28.4947 11.1349 28.4686C11.0083 28.4574 10.8779 28.4425 10.7513 28.4276C10.6656 28.4165 10.8221 28.4388 10.8221 28.4388C10.7885 28.4314 10.755 28.4276 10.7215 28.4239C10.6545 28.4127 10.5874 28.4016 10.5204 28.3904C10.0139 28.3047 9.51479 28.1893 9.02316 28.0366C8.7848 27.9621 8.55016 27.8801 8.31552 27.7908C8.25966 27.7684 8.20752 27.7498 8.15537 27.7274C8.12185 27.7163 7.95798 27.653 8.06226 27.6902C8.174 27.7312 7.99522 27.6604 7.96915 27.6492C7.90211 27.6194 7.83507 27.5896 7.76803 27.5561C7.3211 27.3476 6.88907 27.1129 6.47566 26.8522C6.26336 26.7181 6.05107 26.5766 5.84995 26.4276C5.80526 26.3941 5.75684 26.3606 5.71215 26.3271C5.69353 26.3122 5.6749 26.2973 5.65256 26.2824C5.54827 26.2042 5.6749 26.3047 5.68608 26.3084C5.58552 26.2712 5.46634 26.1334 5.38067 26.0626C5.00823 25.7498 4.65441 25.4146 4.31921 25.057C4.15161 24.8783 3.99146 24.6958 3.83876 24.5058C3.79779 24.4537 3.75682 24.4053 3.71585 24.3531C3.63392 24.2488 3.80896 24.4797 3.69723 24.3308C3.62274 24.2339 3.55198 24.1334 3.48121 24.0365C3.19443 23.6306 2.93 23.206 2.69908 22.7628C2.58363 22.5468 2.47562 22.3233 2.37506 22.0998C2.35271 22.0477 2.33037 21.9955 2.30429 21.9397C2.25215 21.8168 2.35644 22.07 2.29312 21.9136C2.2447 21.7907 2.19629 21.6678 2.14787 21.5449C1.97655 21.0756 1.83502 20.5952 1.72328 20.1035C1.66742 19.8466 1.619 19.5896 1.57803 19.3289C1.57431 19.2991 1.54451 19.1017 1.56313 19.2246C1.58176 19.34 1.55568 19.1575 1.55196 19.1203C1.53706 18.9825 1.52217 18.8484 1.51099 18.7106C1.4663 18.1445 1.46257 17.5784 1.49982 17.0123C1.51099 16.867 1.52216 16.718 1.53706 16.5728C1.54451 16.4908 1.55568 16.4089 1.56686 16.3232C1.56686 16.3083 1.58548 16.2041 1.57058 16.2972C1.55568 16.4052 1.58176 16.2339 1.58548 16.2115C1.6339 15.9061 1.68976 15.6044 1.76425 15.3027C1.90578 14.7106 2.09945 14.137 2.32664 13.5709C2.26333 13.7273 2.35271 13.515 2.37133 13.4741C2.40113 13.4107 2.4272 13.3474 2.457 13.2841C2.52404 13.1389 2.5948 12.9973 2.66929 12.8558C2.80709 12.5914 2.95607 12.3307 3.1125 12.0774C3.26892 11.8241 3.43652 11.5783 3.61529 11.34C3.65626 11.2841 3.69723 11.2282 3.74192 11.1724C3.63392 11.3139 3.78662 11.1165 3.80896 11.0904C3.86483 11.0234 3.91697 10.9563 3.97284 10.8893C4.92629 9.7459 5.93189 8.64719 6.93376 7.54476C8.10696 6.25611 9.29132 4.97863 10.4794 3.70488C11.202 2.93019 11.9282 2.15551 12.6545 1.38456C12.6917 1.34731 12.7252 1.31007 12.7625 1.2691C12.4124 1.2691 12.0586 1.2691 11.7085 1.2691C12.0921 1.67506 12.472 2.08102 12.8556 2.48699C13.7532 3.44417 14.6433 4.40134 15.5335 5.36225C16.5465 6.45723 17.5558 7.55594 18.5503 8.66209C18.9823 9.14254 19.4143 9.62672 19.8389 10.1146C20.0102 10.312 20.1853 10.5131 20.3529 10.7143C20.4236 10.7999 20.4981 10.8856 20.5689 10.9712C20.6061 11.0159 20.6434 11.0606 20.6769 11.1053C20.6955 11.1277 20.7998 11.2617 20.7477 11.1947C20.6955 11.1277 20.7998 11.2617 20.8147 11.2841C20.8557 11.34 20.8966 11.3958 20.9376 11.4517C21.2318 11.8651 21.5 12.2934 21.7384 12.7403C21.8613 12.9713 21.9767 13.2022 22.081 13.4405C22.1071 13.4964 22.1294 13.5523 22.1518 13.6044C22.1853 13.6826 22.1369 13.5709 22.1369 13.5634C22.1481 13.5932 22.1592 13.6193 22.1704 13.6454C22.2188 13.7683 22.2672 13.8875 22.3119 14.0104C22.4907 14.4983 22.636 14.9973 22.744 15.5039C22.7998 15.7646 22.8445 16.029 22.8855 16.2934C22.9004 16.3791 22.8818 16.2562 22.8818 16.2488C22.8855 16.2785 22.8892 16.3121 22.8929 16.3419C22.9004 16.4052 22.9078 16.4648 22.9153 16.5281C22.9302 16.6622 22.9414 16.8 22.9525 16.934C22.9749 17.2171 22.9823 17.4927 22.9823 17.7683C22.9823 18.1594 23.325 18.5318 23.7272 18.5132C24.1294 18.4946 24.4721 18.1855 24.4721 17.7683C24.4646 15.5597 23.8687 13.366 22.7291 11.474C21.9879 10.245 20.9972 9.17234 20.0438 8.10343C19.0531 6.98982 18.0437 5.89112 17.0344 4.79613C16.0996 3.78309 15.161 2.77377 14.2187 1.76817C13.742 1.25793 13.2765 0.729057 12.7811 0.237432C12.7737 0.229983 12.7662 0.222535 12.7588 0.215086C12.4869 -0.0716953 11.9766 -0.0716953 11.7048 0.215086C11.161 0.788648 10.6247 1.36593 10.0846 1.9395C8.91516 3.18718 7.75314 4.43859 6.59856 5.70117C5.48496 6.91533 4.37135 8.1295 3.30244 9.38091C2.65439 10.1332 2.04359 10.9154 1.55568 11.7832C0.922532 12.9117 0.464427 14.1482 0.222339 15.4182C-0.209695 17.705 -0.0197487 20.1184 0.859217 22.2823C1.65252 24.2414 2.91883 25.9993 4.57992 27.3178C6.25964 28.6474 8.25593 29.5599 10.3826 29.8653C12.5763 30.1818 14.8333 29.9472 16.8817 29.0906C18.8259 28.2749 20.554 26.9975 21.8538 25.3289C23.217 23.5784 24.0773 21.5225 24.3678 19.3214C24.4349 18.8074 24.4721 18.2897 24.4721 17.7683C24.4721 17.3773 24.1294 17.0048 23.7272 17.0234C23.325 17.0421 22.9823 17.3512 22.9823 17.7683Z" fill="#C4C4C4"/>
<path d="M12.2336 23.3363C12.0697 23.3363 11.9022 23.3289 11.7383 23.3177C11.6601 23.3103 11.5856 23.3028 11.5074 23.2954C11.4887 23.2916 11.4254 23.2916 11.4068 23.2842C11.5185 23.2991 11.5372 23.3028 11.4515 23.2879C11.4254 23.2842 11.3994 23.2805 11.377 23.2767C11.0604 23.2246 10.7513 23.1501 10.4459 23.0495C10.2969 23.0011 10.1479 22.9453 10.0027 22.8894C9.9133 22.8559 9.98779 22.9155 10.0437 22.908C10.0176 22.9117 9.958 22.8708 9.93193 22.8559C9.84999 22.8186 9.76805 22.7777 9.68611 22.7367C9.41051 22.5952 9.14235 22.435 8.88909 22.2562C8.8295 22.2153 8.7699 22.1669 8.71031 22.1259C8.62093 22.0626 8.85184 22.2413 8.72521 22.1371C8.69914 22.1147 8.67307 22.0961 8.65072 22.0737C8.52409 21.9695 8.40491 21.8615 8.28573 21.7497C8.18144 21.6492 8.07716 21.5449 7.98032 21.4331C7.92446 21.3736 7.87232 21.3102 7.82017 21.2506C7.79783 21.2246 7.77921 21.2022 7.75686 21.1762C7.73451 21.1501 7.71589 21.124 7.69727 21.1017C7.71589 21.1277 7.73451 21.1501 7.75314 21.1762C7.64513 21.0905 7.55946 20.9117 7.48498 20.7963C7.39559 20.6585 7.30993 20.5207 7.23172 20.3754C7.16095 20.2451 7.09391 20.1147 7.0306 19.9806C7.01197 19.9434 6.99708 19.9061 6.97845 19.8689C6.92259 19.746 6.9859 19.9024 6.99335 19.9099C6.94493 19.8503 6.91886 19.7274 6.89279 19.6566C6.76989 19.3177 6.67305 18.9713 6.60974 18.6175C6.60229 18.584 6.59856 18.5504 6.59111 18.5169C6.58739 18.4946 6.54642 18.286 6.57249 18.4126C6.59856 18.5393 6.56877 18.3754 6.56504 18.3605C6.55759 18.3083 6.55387 18.2562 6.55014 18.2078C6.53525 18.0178 6.52407 17.8279 6.52407 17.6342C6.52407 17.2432 6.18143 16.8707 5.77919 16.8893C5.37695 16.908 5.0343 17.2171 5.0343 17.6342C5.04175 19.1017 5.48496 20.5728 6.3453 21.7683C7.21309 22.9713 8.39001 23.8801 9.78295 24.3941C10.5576 24.6808 11.3956 24.8187 12.2225 24.8224C12.6135 24.8224 12.986 24.4797 12.9673 24.0775C12.9599 23.6753 12.6508 23.3401 12.2336 23.3363Z" fill="#C4C4C4"/>
</svg>
