<svg width="35" height="45" viewBox="0 0 22 28" fill="none" xmlns="http://www.w3.org/2000/svg">
<path d="M19.2715 10.4533L11.4937 0.373333C11.3381 0.124444 11.0581 0 10.7781 0C10.4981 0 10.2181 0.124444 10.0626 0.342222L2.2848 10.4222C-0.2352 13.6889 -0.701867 18.0444 1.04036 21.7778C2.78258 25.5111 6.23591 27.8133 10.2804 28C10.4359 28 10.6226 28 10.7781 28C10.9337 28 11.1204 28 11.2759 28C15.3204 27.8444 18.7737 25.5111 20.5159 21.8089C22.2581 18.0444 21.7915 13.6889 19.2715 10.4533ZM18.867 21.0311C17.4359 24.1111 14.5737 26.04 11.2137 26.1644C10.9337 26.1644 10.6226 26.1644 10.3426 26.1644C6.98258 26.04 4.12036 24.1111 2.68924 21.0311C1.22702 17.8889 1.63147 14.28 3.71591 11.5733L10.7781 2.39556L17.8404 11.5422C19.9248 14.28 20.3292 17.92 18.867 21.0311ZM11.4004 23.3956C11.4004 23.7378 11.1204 24.0178 10.7781 24.0178C7.38702 24.0178 4.61813 21.2489 4.61813 17.8578C4.61813 17.5156 4.89813 17.2356 5.24036 17.2356C5.58258 17.2356 5.86258 17.5156 5.86258 17.8578C5.86258 20.5644 8.07147 22.8044 10.8092 22.8044C11.1204 22.7733 11.4004 23.0533 11.4004 23.3956Z" fill="#405865"/>
</svg>
