<svg width="30" height="27" viewBox="0 0 30 27" fill="none" xmlns="http://www.w3.org/2000/svg">
<path d="M1.66667 21.6667C1.9963 21.6667 2.31853 21.5689 2.59262 21.3858C2.8667 21.2026 3.08032 20.9423 3.20647 20.6378C3.33261 20.3333 3.36562 19.9982 3.30131 19.6748C3.237 19.3515 3.07827 19.0546 2.84518 18.8215C2.61209 18.5884 2.31512 18.4297 1.99182 18.3654C1.66852 18.301 1.3334 18.3341 1.02886 18.4602C0.724317 18.5863 0.46402 18.8 0.280884 19.074C0.0977484 19.3481 0 19.6704 0 20C0 20.442 0.175595 20.866 0.488155 21.1785C0.800716 21.4911 1.22464 21.6667 1.66667 21.6667ZM6.66667 8.33333C6.0074 8.33333 5.36293 8.52883 4.81477 8.8951C4.2666 9.26137 3.83936 9.78197 3.58707 10.3911C3.33478 11.0001 3.26876 11.6704 3.39738 12.317C3.526 12.9636 3.84347 13.5575 4.30964 14.0237C4.77582 14.4899 5.36976 14.8073 6.01637 14.936C6.66297 15.0646 7.33319 14.9986 7.94228 14.7463C8.55137 14.494 9.07196 14.0667 9.43823 13.5186C9.8045 12.9704 10 12.3259 10 11.6667C10 10.7826 9.64881 9.93477 9.02369 9.30964C8.39857 8.68452 7.55072 8.33333 6.66667 8.33333ZM19.1667 6.66667C18.0129 6.66667 16.8851 7.00879 15.9258 7.64976C14.9666 8.29073 14.2189 9.20178 13.7774 10.2677C13.3359 11.3336 13.2203 12.5065 13.4454 13.638C13.6705 14.7696 14.2261 15.809 15.0419 16.6248C15.8577 17.4406 16.8971 17.9962 18.0286 18.2212C19.1602 18.4463 20.3331 18.3308 21.399 17.8893C22.4649 17.4478 23.3759 16.7001 24.0169 15.7408C24.6579 14.7815 25 13.6537 25 12.5C25 10.9529 24.3854 9.46917 23.2915 8.37521C22.1975 7.28125 20.7138 6.66667 19.1667 6.66667ZM27.5 0C27.0055 0 26.5222 0.146623 26.1111 0.421326C25.7 0.69603 25.3795 1.08648 25.1903 1.54329C25.0011 2.00011 24.9516 2.50277 25.048 2.98773C25.1445 3.47268 25.3826 3.91814 25.7322 4.26777C26.0819 4.6174 26.5273 4.8555 27.0123 4.95196C27.4972 5.04843 27.9999 4.99892 28.4567 4.8097C28.9135 4.62048 29.304 4.30005 29.5787 3.88893C29.8534 3.4778 30 2.99445 30 2.5C30 1.83696 29.7366 1.20107 29.2678 0.732233C28.7989 0.263392 28.163 0 27.5 0ZM29.1667 26.6667H0.833333C0.61232 26.6667 0.400358 26.5789 0.244078 26.4226C0.0877975 26.2663 0 26.0543 0 25.8333C0 25.6123 0.0877975 25.4004 0.244078 25.2441C0.400358 25.0878 0.61232 25 0.833333 25H29.1667C29.3877 25 29.5996 25.0878 29.7559 25.2441C29.9122 25.4004 30 25.6123 30 25.8333C30 26.0543 29.9122 26.2663 29.7559 26.4226C29.5996 26.5789 29.3877 26.6667 29.1667 26.6667Z" fill="#C4C4C4"/>
</svg>
