<svg width="50" height="43" viewBox="0 0 37 32" fill="none" xmlns="http://www.w3.org/2000/svg">
<path d="M2.79999 26C3.19555 26 3.58223 25.8827 3.91113 25.6629C4.24003 25.4432 4.49637 25.1308 4.64775 24.7654C4.79912 24.3999 4.83873 23.9978 4.76156 23.6098C4.68439 23.2219 4.49391 22.8655 4.2142 22.5858C3.9345 22.3061 3.57813 22.1156 3.19017 22.0384C2.80221 21.9613 2.40007 22.0009 2.03462 22.1522C1.66917 22.3036 1.35681 22.56 1.13705 22.8889C0.917286 23.2178 0.799988 23.6044 0.799988 24C0.799988 24.5304 1.0107 25.0391 1.38577 25.4142C1.76085 25.7893 2.26955 26 2.79999 26ZM8.79999 12C9.19555 12 9.58223 12.1173 9.91113 12.3371C10.24 12.5568 10.4964 12.8692 10.6477 13.2346C10.7991 13.6001 10.8387 14.0022 10.7616 14.3902C10.6844 14.7781 10.4939 15.1345 10.2142 15.4142C9.9345 15.6939 9.57813 15.8844 9.19017 15.9616C8.80221 16.0387 8.40007 15.9991 8.03462 15.8478C7.66917 15.6964 7.35681 15.44 7.13705 15.1111C6.91729 14.7822 6.79999 14.3956 6.79999 14C6.8006 13.4698 7.01151 12.9614 7.38645 12.5865C7.76139 12.2115 8.26974 12.0006 8.79999 12ZM8.79999 10C8.00886 10 7.2355 10.2346 6.57771 10.6741C5.91991 11.1136 5.40722 11.7384 5.10447 12.4693C4.80172 13.2002 4.72251 14.0044 4.87685 14.7804C5.03119 15.5563 5.41215 16.269 5.97156 16.8284C6.53097 17.3878 7.2437 17.7688 8.01963 17.9231C8.79555 18.0775 9.59982 17.9983 10.3307 17.6955C11.0616 17.3928 11.6863 16.8801 12.1259 16.2223C12.5654 15.5645 12.8 14.7911 12.8 14C12.8 12.9391 12.3786 11.9217 11.6284 11.1716C10.8783 10.4214 9.86085 10 8.79999 10ZM23.8 10C24.7889 10 25.7556 10.2932 26.5778 10.8426C27.4001 11.3921 28.0409 12.1729 28.4194 13.0866C28.7978 14.0002 28.8968 15.0055 28.7039 15.9754C28.511 16.9454 28.0348 17.8363 27.3355 18.5355C26.6363 19.2348 25.7453 19.711 24.7754 19.9039C23.8055 20.0968 22.8002 19.9978 21.8866 19.6194C20.9729 19.241 20.192 18.6001 19.6426 17.7778C19.0932 16.9556 18.8 15.9889 18.8 15C18.8015 13.6744 19.3288 12.4035 20.2661 11.4661C21.2035 10.5288 22.4744 10.0015 23.8 10ZM23.8 8C22.4155 8 21.0621 8.41054 19.911 9.17971C18.7599 9.94888 17.8626 11.0421 17.3328 12.3212C16.803 13.6003 16.6644 15.0078 16.9345 16.3656C17.2046 17.7235 17.8713 18.9708 18.8502 19.9497C19.8292 20.9287 21.0765 21.5954 22.4344 21.8655C23.7922 22.1356 25.1997 21.997 26.4788 21.4672C27.7579 20.9373 28.8511 20.0401 29.6203 18.889C30.3894 17.7378 30.8 16.3845 30.8 15C30.8 13.1435 30.0625 11.363 28.7497 10.0503C27.437 8.7375 25.6565 8 23.8 8ZM33.8 2C33.9978 2 34.1911 2.05865 34.3556 2.16853C34.52 2.27841 34.6482 2.43459 34.7239 2.61732C34.7996 2.80004 34.8194 3.00111 34.7808 3.19509C34.7422 3.38907 34.6469 3.56725 34.5071 3.70711C34.3672 3.84696 34.1891 3.9422 33.9951 3.98078C33.8011 4.01937 33.6 3.99957 33.4173 3.92388C33.2346 3.84819 33.0784 3.72002 32.9685 3.55557C32.8586 3.39112 32.8 3.19778 32.8 3C32.8003 2.73488 32.9057 2.4807 33.0932 2.29323C33.2807 2.10575 33.5349 2.0003 33.8 2ZM33.8 0C33.2066 0 32.6266 0.175947 32.1333 0.505591C31.6399 0.835235 31.2554 1.30377 31.0284 1.85195C30.8013 2.40013 30.7419 3.00333 30.8576 3.58527C30.9734 4.16721 31.2591 4.70176 31.6787 5.12132C32.0982 5.54088 32.6328 5.8266 33.2147 5.94236C33.7967 6.05811 34.3999 5.9987 34.948 5.77164C35.4962 5.54458 35.9648 5.16006 36.2944 4.66671C36.624 4.17336 36.8 3.59334 36.8 3C36.8 2.20435 36.4839 1.44129 35.9213 0.878679C35.3587 0.31607 34.5956 0 33.8 0ZM35.8 32H1.79999C1.53477 32 1.28042 31.8946 1.09288 31.7071C0.905345 31.5196 0.799988 31.2652 0.799988 31C0.799988 30.7348 0.905345 30.4804 1.09288 30.2929C1.28042 30.1054 1.53477 30 1.79999 30H35.8C36.0652 30 36.3196 30.1054 36.5071 30.2929C36.6946 30.4804 36.8 30.7348 36.8 31C36.8 31.2652 36.6946 31.5196 36.5071 31.7071C36.3196 31.8946 36.0652 32 35.8 32Z" fill="#C4C4C4"/>
</svg>
