<svg width="24" height="28" viewBox="0 0 24 28" fill="none" xmlns="http://www.w3.org/2000/svg">
<path d="M24 18.8571V3.42857C24 2.51926 23.6388 1.64719 22.9958 1.00421C22.3528 0.361223 21.4807 0 20.5714 0H3.42857C2.51926 0 1.64719 0.361223 1.00421 1.00421C0.361223 1.64719 0 2.51926 0 3.42857V24C0 24.9093 0.361223 25.7814 1.00421 26.4244C1.64719 27.0673 2.51926 27.4286 3.42857 27.4286H23.1429C23.3702 27.4286 23.5882 27.3383 23.7489 27.1775C23.9097 27.0168 24 26.7988 24 26.5714C24 26.3441 23.9097 26.1261 23.7489 25.9653C23.5882 25.8046 23.3702 25.7143 23.1429 25.7143H22.2856V21.8103C22.8055 21.5119 23.2376 21.0818 23.5385 20.5634C23.8395 20.0451 23.9986 19.4566 24 18.8571ZM3.42857 25.7143C2.97391 25.7143 2.53788 25.5337 2.21639 25.2122C1.8949 24.8907 1.71429 24.4547 1.71429 24C1.71429 23.5453 1.8949 23.1093 2.21639 22.7878C2.53788 22.4663 2.97391 22.2857 3.42857 22.2857H20.5713V25.7143H3.42857Z" fill="#C4C4C4"/>
</svg>
