<svg width="40" height="45" viewBox="0 0 25 28" fill="none" xmlns="http://www.w3.org/2000/svg">
<path d="M24.6 18.8571V3.42857C24.6 2.51926 24.2388 1.64719 23.5958 1.00421C22.9528 0.361223 22.0807 0 21.1714 0H4.02858C3.11926 0 2.24719 0.361223 1.60421 1.00421C0.961229 1.64719 0.600006 2.51926 0.600006 3.42857V24C0.600006 24.9093 0.961229 25.7814 1.60421 26.4244C2.24719 27.0673 3.11926 27.4286 4.02858 27.4286H23.7429C23.9702 27.4286 24.1882 27.3383 24.349 27.1775C24.5097 27.0168 24.6 26.7988 24.6 26.5714C24.6 26.3441 24.5097 26.1261 24.349 25.9653C24.1882 25.8046 23.9702 25.7143 23.7429 25.7143H22.8856V21.8103C23.4055 21.5119 23.8376 21.0818 24.1386 20.5634C24.4395 20.0451 24.5986 19.4566 24.6 18.8571ZM4.02858 1.71429H21.1714C21.6259 1.71481 22.0617 1.89559 22.383 2.21696C22.7044 2.53834 22.8852 2.97407 22.8857 3.42857V18.8571C22.8852 19.3116 22.7044 19.7474 22.383 20.0687C22.0617 20.3901 21.6259 20.5709 21.1714 20.5714H4.02858C3.42503 20.5747 2.83326 20.7388 2.31429 21.047V3.42857C2.31481 2.97407 2.49559 2.53834 2.81697 2.21696C3.13835 1.89559 3.57408 1.71481 4.02858 1.71429ZM4.02858 25.7143C3.57392 25.7143 3.13789 25.5337 2.81639 25.2122C2.4949 24.8907 2.31429 24.4547 2.31429 24C2.31429 23.5453 2.4949 23.1093 2.81639 22.7878C3.13789 22.4663 3.57392 22.2857 4.02858 22.2857H21.1713V25.7143H4.02858Z" fill="#C4C4C4"/>
</svg>
