<svg width="40" height="40" viewBox="0 0 25 25" fill="none" xmlns="http://www.w3.org/2000/svg">
<path d="M12.5 0L0 12.5C0 19.4031 5.59687 25 12.5 25C19.4031 25 25 19.4031 25 12.5C25 5.59687 19.4031 0 12.5 0ZM11.4584 3.9875V5.20813C11.4584 8.66063 8.66094 11.4581 5.20844 11.4581H3.98781L11.4584 3.9875ZM12.5 22.9166C7.10844 22.9166 2.66937 18.7966 2.14219 13.5416H5.20844C9.81063 13.5416 13.5416 9.81031 13.5416 5.20813V2.14219C18.7966 2.66906 22.9166 7.10844 22.9166 12.5C22.9166 18.2434 18.2434 22.9166 12.5 22.9166Z" fill="#405865"/>
</svg>
