<svg xmlns="http://www.w3.org/2000/svg" viewBox="0 0 751.78 100.21"><title>arrowAsset 5</title><g id="Layer_2" data-name="Layer 2"><g id="Layer_1-2" data-name="Layer 1"><path d="M73.85,20.69H48.05V98.94H25.8V20.69H0V1.28H73.85Z" style="fill:#ffffff"/><path d="M144.43,76.26h-34.3L102.9,98.94H79.09L115.23,1.28h24.24l36,97.66H151.8ZM138.2,57,127.14,22.82,116.23,57Z" style="fill:#ffffff"/><path d="M196.73,1.28H219V79.52h35.86V98.94H196.73Z" style="fill:#ffffff"/><path d="M280.21,1.28h22.26V98.94H280.21Z" style="fill:#ffffff"/><path d="M331.24,70h22.25c0,6.24,6.24,11.06,13.89,11.06,7.23,0,12.76-3.26,12.76-9.64,0-3.83-2.13-7.37-10.77-10.21l-11.62-3.54c-21.55-5.81-25.66-19-25.66-28.21,0-17.57,15-29.48,34.44-29.48,18.71,0,33,11.2,33,30.19H377.31c0-5.81-3.55-10.77-11.2-10.77-6.95,0-11.48,4.25-11.48,9.64,0,2,.56,6.38,9.64,8.93l10.2,3.12c13.89,4.25,28.07,11.48,28.07,29.19,0,21-18.15,29.91-36,29.91C345.7,100.21,331.24,88,331.24,70Z" style="fill:#ffffff"/><path d="M521.17,98.94l-6.38-55.57L493.53,87.74h-17L455.26,43.51l-6.52,55.43H425.92L438,1.28h18.57L485,62.37,513.09,1.28h19L544,98.94Z" style="fill:#ffffff"/><path d="M625.63,76.26h-34.3L584.1,98.94H560.29L596.43,1.28h24.24l36,97.66H633ZM619.4,57,608.34,22.82,597.43,57Z" style="fill:#ffffff"/><path d="M751.78,1.28V98.94H732.22l-32-56.13V98.94H677.93V1.28h20.41L729.53,56.7V1.28Z" style="fill:#ffffff"/></g></g></svg>